<?xml version="1.0" encoding="UTF-8" standalone="no"?>
<svg
   version="1.0"
   width="894.000000pt"
   height="1024.000000pt"
   viewBox="0 0 894.000000 1024.000000"
   preserveAspectRatio="xMidYMid meet"
   id="svg16"
   sodipodi:docname="ecuador.svg"
   inkscape:version="1.4.2 (ebf0e940, 2025-05-08)"
   xmlns:inkscape="http://www.inkscape.org/namespaces/inkscape"
   xmlns:sodipodi="http://sodipodi.sourceforge.net/DTD/sodipodi-0.dtd"
   xmlns="http://www.w3.org/2000/svg"
   xmlns:svg="http://www.w3.org/2000/svg">
  <defs
     id="defs16" />
  <sodipodi:namedview
     id="namedview16"
     pagecolor="#ffffff"
     bordercolor="#000000"
     borderopacity="0.25"
     inkscape:showpageshadow="2"
     inkscape:pageopacity="0.0"
     inkscape:pagecheckerboard="0"
     inkscape:deskcolor="#d1d1d1"
     inkscape:document-units="pt"
     showgrid="false"
     inkscape:zoom="0.4921875"
     inkscape:cx="596.31746"
     inkscape:cy="682.66667"
     inkscape:window-width="1472"
     inkscape:window-height="891"
     inkscape:window-x="0"
     inkscape:window-y="65"
     inkscape:window-maximized="0"
     inkscape:current-layer="g16" />
  <g
     transform="translate(0.000000,1024.000000) scale(0.100000,-0.100000)"
     fill="#000000"
     stroke="none"
     id="g16">
    <path
       d="M0 10230 c0 -7 1497 -10 4470 -10 2973 0 4470 3 4470 10 0 7 -1497 10 -4470 10 -2973 0 -4470 -3 -4470 -10z"
       id="path1" />
    <path
       d="M3549 9953 c-1 -5 0 -23 1 -40 1 -20 -7 -43 -19 -59 -27 -34 -27 -70 -1 -84 36 -19 24 -45 -27 -61 -32 -10 -52 -23 -60 -39 -7 -15 -24 -27 -40 -30 -26 -5 -28 -9 -33 -63 -6 -62 -19 -79 -59 -75 -21 3 -27 12 -37 53 -15 56 -43 86 -75 78 -11 -3 -45 -36 -75 -74 -62 -79 -81 -93 -145 -114 -34 -12 -49 -22 -51 -37 -3 -20 -4 -20 -33 4 -24 19 -40 23 -85 21 -30 -1 -90 -3 -132 -3 l-78 -1 -52 -48 c-69 -62 -87 -71 -146 -71 -57 0 -77 -16 -87 -70 -4 -24 -1 -50 11 -78 9 -24 14 -46 10 -49 -9 -10 -63 45 -76 78 -11 25 -9 34 14 74 l27 45 -26 0 c-44 0 -137 -51 -196 -107 -56 -53 -110 -83 -151 -83 -13 0 -43 -10 -68 -22 -25 -11 -76 -24 -114 -27 -64 -6 -71 -9 -98 -42 -70 -87 -66 -170 12 -224 48 -33 87 -96 96 -157 5 -30 1 -40 -25 -67 -38 -39 -35 -62 20 -141 41 -58 49 -99 25 -119 -12 -10 -20 -9 -41 5 -41 27 -47 10 -36 -99 10 -101 0 -216 -23 -272 -18 -40 -136 -205 -148 -205 -5 0 -46 -35 -91 -79 -46 -43 -103 -87 -127 -99 -73 -33 -125 -88 -144 -154 -17 -59 -23 -66 -109 -118 -53 -33 -57 -50 -24 -94 13 -17 47 -76 76 -131 28 -55 64 -115 80 -134 26 -31 35 -35 96 -42 71 -7 101 -23 75 -39 -8 -5 -53 -10 -99 -10 l-84 0 -38 40 c-21 22 -42 40 -47 40 -14 0 -66 -122 -108 -251 -48 -151 -57 -170 -95 -214 -31 -35 -35 -37 -73 -29 -49 9 -123 8 -235 -3 l-84 -8 -28 -54 c-16 -30 -42 -68 -59 -86 -59 -61 -34 -141 106 -335 42 -58 80 -116 85 -130 15 -36 -16 -162 -48 -201 -16 -19 -29 -50 -34 -80 -5 -34 -18 -61 -38 -85 -17 -19 -31 -41 -31 -48 0 -7 20 -44 45 -82 25 -38 54 -100 65 -139 12 -38 37 -118 58 -177 36 -106 36 -107 19 -143 -11 -22 -17 -60 -17 -101 0 -37 -6 -77 -14 -93 -17 -33 -81 -91 -99 -91 -8 0 -26 -13 -42 -30 -41 -43 -82 -48 -151 -16 -31 14 -58 26 -60 26 -38 0 120 -179 213 -242 68 -46 84 -52 162 -62 47 -7 100 -20 117 -29 17 -9 98 -87 179 -174 185 -198 190 -203 223 -203 20 0 34 -11 55 -40 29 -41 122 -94 154 -88 9 2 24 15 32 29 14 25 13 29 -12 59 -19 22 -27 43 -27 71 0 35 3 39 25 39 13 0 39 -7 58 -16 l33 -16 65 67 c74 77 74 78 131 210 51 118 99 175 146 175 41 0 43 -26 6 -61 -15 -13 -37 -46 -50 -74 -20 -43 -22 -52 -10 -70 11 -16 25 -20 64 -20 54 0 90 -19 58 -31 -9 -4 -32 -4 -50 -1 -27 4 -39 1 -55 -17 -12 -12 -21 -27 -21 -33 0 -7 -15 -23 -32 -38 l-33 -26 30 -25 c22 -18 38 -23 58 -19 77 14 128 59 159 140 17 43 46 57 67 32 9 -12 9 -22 -3 -48 -27 -64 -39 -136 -26 -159 17 -31 41 -21 57 25 19 54 12 122 -20 182 -33 65 -46 139 -40 239 5 76 4 84 -21 120 -25 37 -26 43 -20 129 7 96 16 125 39 125 8 0 31 17 53 39 39 40 96 61 114 43 8 -8 3 -18 -16 -34 -16 -13 -40 -36 -54 -52 -15 -15 -37 -32 -48 -36 -31 -12 -43 -94 -17 -122 13 -15 19 -39 20 -87 7 -208 7 -204 43 -276 27 -55 42 -72 65 -80 53 -18 55 -21 55 -110 0 -79 -2 -86 -30 -119 -33 -37 -60 -94 -60 -126 0 -11 -11 -42 -25 -69 -44 -88 -105 -289 -105 -348 0 -44 -7 -67 -40 -127 -22 -40 -44 -97 -50 -126 -13 -68 -32 -98 -76 -116 -33 -14 -38 -13 -70 7 -19 12 -36 20 -38 18 -1 -2 -17 -34 -35 -71 -45 -94 -67 -107 -199 -120 -109 -11 -172 -34 -172 -64 0 -7 25 -25 56 -40 61 -29 72 -44 56 -79 -10 -21 -8 -27 19 -46 30 -21 31 -24 24 -75 -5 -45 -3 -59 14 -82 16 -24 20 -46 22 -133 1 -84 5 -111 22 -139 11 -19 32 -66 48 -105 27 -66 28 -71 11 -86 -9 -9 -44 -25 -76 -34 -63 -18 -107 -53 -138 -113 -21 -40 -35 -40 -83 -2 -44 35 -95 47 -134 31 -21 -9 -36 -30 -61 -88 -31 -71 -32 -76 -18 -101 9 -15 21 -52 27 -83 7 -31 18 -65 26 -75 13 -19 15 -19 62 0 26 10 65 20 86 23 31 4 37 2 37 -14 0 -10 -18 -37 -41 -58 -50 -49 -152 -244 -147 -283 4 -32 59 -72 100 -72 46 0 159 85 298 222 52 52 63 58 100 58 54 0 73 -11 142 -78 57 -56 58 -56 135 -63 72 -7 80 -10 106 -41 89 -107 81 -101 143 -94 61 7 84 17 127 52 47 39 78 32 140 -32 48 -50 61 -58 113 -68 69 -14 78 -32 43 -80 -31 -42 -29 -82 10 -141 17 -27 42 -83 53 -124 17 -56 31 -83 58 -108 19 -18 42 -41 50 -50 16 -18 44 -44 113 -104 35 -30 52 -37 105 -43 34 -4 81 -14 104 -22 33 -11 49 -12 75 -3 31 10 38 8 73 -16 64 -44 84 -29 121 90 20 66 46 95 84 95 12 0 30 6 40 14 18 13 18 16 1 88 -21 89 -15 119 33 167 44 44 174 113 256 136 68 19 86 36 79 74 -4 18 4 45 25 85 17 32 31 63 31 70 0 7 -13 22 -30 34 -26 20 -30 29 -30 73 0 39 8 66 39 122 21 40 46 104 55 142 10 39 31 94 49 124 26 47 31 66 33 133 3 101 29 156 124 267 39 47 78 94 86 106 26 40 64 221 64 305 0 44 5 103 11 132 21 98 99 139 156 82 26 -26 27 -44 7 -111 -5 -18 -2 -23 12 -23 33 1 104 76 104 111 0 10 -13 34 -30 52 -54 62 -36 115 56 161 53 26 64 40 64 82 0 18 9 28 37 41 20 10 39 25 43 33 4 8 14 28 21 44 15 31 241 241 284 264 31 16 92 38 875 312 858 300 930 327 985 364 28 18 178 132 335 252 157 121 323 249 370 284 47 35 108 88 137 117 63 65 310 357 500 594 80 99 159 187 182 202 34 23 43 36 56 84 8 32 29 105 47 163 17 58 42 152 55 210 61 276 108 463 119 467 6 2 33 -10 60 -26 47 -30 52 -31 132 -24 45 3 82 10 82 15 0 4 -12 26 -26 48 -23 35 -26 46 -20 92 6 46 2 61 -24 116 -24 52 -30 77 -30 133 0 64 2 70 30 91 26 19 29 26 24 54 -3 17 -1 42 6 53 15 29 6 53 -27 73 -16 9 -44 32 -63 51 -19 20 -62 51 -95 69 -71 40 -85 62 -124 197 -20 71 -38 112 -57 132 -27 29 -99 59 -140 59 -36 0 -55 27 -52 74 l3 41 70 -3 c60 -3 79 -9 137 -43 73 -43 84 -45 113 -24 14 11 35 14 80 10 68 -7 108 8 113 40 4 36 -14 46 -133 81 -125 37 -193 68 -263 117 -43 31 -44 31 -184 34 l-141 2 -61 59 c-34 33 -88 78 -121 100 -71 47 -120 103 -176 204 -23 40 -43 75 -45 76 -1 2 -18 -1 -37 -7 -44 -15 -65 -6 -81 33 -11 27 -21 34 -66 44 -28 7 -83 26 -120 42 -38 17 -73 30 -78 30 -5 0 -26 -13 -46 -29 -31 -24 -43 -28 -76 -24 -31 4 -45 1 -61 -13 -19 -17 -20 -26 -14 -100 9 -114 7 -116 -172 -129 -67 -4 -84 -3 -95 11 -36 44 -49 52 -106 64 -70 14 -92 6 -92 -36 0 -29 -20 -31 -61 -7 -28 17 -32 17 -78 0 -72 -25 -94 -22 -146 23 -41 35 -52 40 -96 40 -64 0 -84 11 -109 60 -26 50 -55 58 -136 37 -79 -22 -123 -21 -146 0 -13 12 -38 17 -81 18 -39 1 -80 10 -112 24 -69 31 -85 47 -78 82 4 20 -2 41 -22 74 -30 51 -33 80 -16 142 10 35 9 48 -3 71 -22 44 -42 55 -94 53 -58 -1 -133 33 -181 83 -27 28 -36 47 -42 91 -9 69 -31 105 -64 105 -13 0 -59 -11 -102 -25 -120 -38 -165 -32 -186 26 -6 18 -155 71 -234 84 -24 4 -57 17 -75 30 -18 14 -53 35 -78 49 -25 14 -67 43 -93 65 -32 27 -69 46 -110 57 -57 16 -70 25 -154 110 -99 100 -123 116 -197 135 -34 8 -54 21 -76 49 -21 27 -43 41 -77 50 -57 16 -79 33 -104 82 -23 45 -52 73 -99 98 -19 10 -43 32 -53 49 -17 29 -36 41 -38 24z"
       id="path2" />
    <path
       d="M3355 9794 l-60 -55 24 -19 c35 -30 65 -25 95 15 20 26 26 44 24 72 -2 20 -7 38 -13 39 -5 2 -37 -22 -70 -52z"
       id="path3" />
    <path
       d="M1627 3807 l-98 -52 -54 -95 -55 -95 0 -105 c0 -120 9 -141 66 -160 32 -11 39 -10 66 10 16 12 48 27 71 34 42 12 42 12 45 62 3 46 -1 55 -33 93 -42 52 -43 63 -7 91 28 23 28 23 143 4 33 -5 37 -3 64 40 16 25 53 63 82 85 l54 40 -25 16 c-13 9 -53 27 -89 40 -36 13 -74 28 -85 34 -31 17 -39 14 -145 -42z"
       id="path4" />
    <path
       d="M0 10 c0 -7 1497 -10 4470 -10 2973 0 4470 3 4470 10 0 7 -1497 10 -4470 10 -2973 0 -4470 -3 -4470 -10z"
       id="path16" />
  </g>
</svg>
